# xmcd CD database file
#
# Track frame offsets:
#	150
#	15315
#	31341
#	44281
#	58586
#	72597
#	85793
#	99028
#	117029
#	126250
#
# Disc length: 1901 seconds
#
# Revision: 0
# Processed by: cddbd v1.5.2PL0 Copyright (c) Steve Scherf et al.
# Submitted via: CDex 1.70beta3
#
DISCID=75076b0a
DTITLE=美空 ひばり - ひばりとシャープ 
DYEAR=1961
DGENRE=Jazz
TTITLE0=虹の彼方
TTITLE1=クライ・ミー・ア・リバー
TTITLE2=ククルクク・パローマ 
TTITLE3=アイ・ラブ・パリ
TTITLE4=ラブ・レター
TTITLE5=ブルーベリー・ヒル
TTITLE6=セ・マニフィック
TTITLE7=ダニー・ボーイ
TTITLE8=ジャスト・ワン・オブ・ゾーズ・シングス
TTITLE9=匕首マック 
EXTD=YEAR: 1961
EXTT0=
EXTT1=
EXTT2=
EXTT3=
EXTT4=
EXTT5=
EXTT6=
EXTT7=
EXTT8=
EXTT9=
PLAYORDER=
